<?xml version="1.0" encoding="utf-8"?>
<!-- Generator: Adobe Illustrator 21.0.1, SVG Export Plug-In . SVG Version: 6.00 Build 0)  -->
<svg version="1.1" id="Capa_1" xmlns="http://www.w3.org/2000/svg" xmlns:xlink="http://www.w3.org/1999/xlink" x="0px" y="0px"
	 viewBox="0 0 512 1024" style="enable-background:new 0 0 512 1024;" xml:space="preserve">
<style type="text/css">
	.st0{fill:#C88397;}
	.st1{fill:#FFFFFF;}
</style>
<path class="st0" d="M364.8,62c28.1,0,53.7,11.5,72.1,32.5C455,115,465,142.8,465,172.6c0,16.4-3.2,32-9.8,47.6
	c-6.9,16.4-17.4,32.9-32.3,50.6c-27.7,32.9-68.6,67.8-116,108.2l-0.2,0.1c-16.3,13.9-33,28.1-50.8,43.6
	c-17.8-15.5-34.6-29.8-50.9-43.7c-47.4-40.4-88.3-75.3-116-108.2c-14.8-17.6-25.4-34.2-32.3-50.6C50.2,204.6,47,189,47,172.6
	c0-29.9,10-57.6,28.1-78.2C93.6,73.5,119.2,62,147.3,62c17.5,0,33.6,4.7,47.9,14c11.3,7.3,21.6,17.4,30.5,30c3.6,5,6.9,10.5,10,16.3
	L256,160l20.3-37.8c3.1-5.8,6.5-11.3,10-16.3c8.9-12.6,19.2-22.7,30.5-30C331.2,66.7,347.3,62,364.8,62 M364.8,39
	c-48.9,0-79.8,29.2-97.2,53.7c-4.5,6.4-8.3,12.7-11.6,18.7c-3.2-6-7-12.4-11.6-18.7C227.1,68.2,196.1,39,147.3,39
	c-34.8,0-66.5,14.3-89.4,40.3C36,104,24,137.2,24,172.6c0,38.6,15.1,74.5,47.4,113c28.9,34.4,70.5,69.9,118.7,110.9
	c18,15.3,36.5,31.1,56.3,48.4l0.6,0.5c2.6,2.2,5.8,3.4,9,3.4c3.2,0,6.4-1.1,9-3.4l0.6-0.5c19.8-17.3,38.3-33.1,56.3-48.4
	c48.2-41.1,89.8-76.5,118.7-110.9c32.4-38.5,47.4-74.4,47.4-113c0-35.5-12-68.6-33.9-93.4C431.3,53.3,399.5,39,364.8,39L364.8,39z"
	/>
<g>
	<g>
		<path class="st0" d="M454.1,575.6c-22.9-26-54.6-40.3-89.4-40.3c-48.9,0-79.8,29.2-97.2,53.7c-4.5,6.4-8.3,12.7-11.6,18.7
			c-3.2-6-7-12.4-11.6-18.7c-17.4-24.5-48.3-53.7-97.2-53.7c-34.8,0-66.5,14.3-89.4,40.3C36,600.3,24,633.5,24,669
			c0,38.6,15.1,74.5,47.4,113c28.9,34.4,70.5,69.9,118.7,110.9c18,15.3,36.5,31.1,56.3,48.4l0.6,0.5c2.6,2.2,5.8,3.4,9,3.4
			c3.2,0,6.4-1.1,9-3.4l0.6-0.5c19.8-17.3,38.3-33.1,56.3-48.4c48.2-41.1,89.8-76.5,118.7-110.9C473,743.5,488,707.6,488,669
			C488,633.5,476,600.3,454.1,575.6z"/>
	</g>
</g>
<g>
	<g>
		<path class="st1" d="M448.2,108.5c-15.1-24-36.1-34.7-41-37c-8.3-4-29.7-12.8-55.6-8.8c-2.1,0.3-8.7,1.4-16.9,4.4
			c-4.7,1.7-23.2,8.7-39.9,26.7c-8,8.6-16.2,24.1-32.9,55c-2.5,4.7-4.6,8.6-5.9,11.2c-1.5-2.8-4.3-7.9-5.8-10.8
			c-8.8-16.3-13.2-24.5-14.5-26.9c-5.6-9.9-11.9-20.9-22.9-31.9c-5.8-5.8-16.9-16.7-35.1-23.2c-3.1-1.1-14.7-5.1-30.4-5.2
			c-10.3-0.1-26.4,1.5-43.5,10.1C84.6,81.8,74,95.4,69.5,101.3c-13.6,18-17.7,35.5-19.6,44c-1.5,6.6-6.1,29.8,1,58
			c6.1,24.1,18,40.9,23.8,49.1c6.7,9.5,14.5,18.6,14.5,18.6c3.9,4.6,8.3,9.5,13.4,15c0,0,4.3,4.8,8,8.7
			c13.4,14.1,32.4,31.3,88.2,79.1c20,17.1,36.7,31.3,48.6,41.4c2.9,2.5,5.8,5,8.7,7.5c8.3-7.1,16.6-14.3,24.9-21.4
			c8.2-6.9,20.4-17.3,35.2-30c32-27.5,61-51.9,92.6-84.5c9.7-10,22.3-23.5,34.5-43.2c9.3-15.1,14.3-27.2,17.4-38.6
			c2.9-10.5,3.7-18.9,4-22.1c0.3-4,1.1-15-1-29.1C462.2,143.9,459.6,126.7,448.2,108.5z"/>
	</g>
</g>
</svg>
